<svg id="Layer_1" data-name="Layer 1" xmlns="http://www.w3.org/2000/svg" viewBox="0 0 200 51.1">
  <defs>
    <style>
      .cls-1 {
        fill: #1f2020;
      }

      .cls-2 {
        fill: #4a4a4a;
      }

      .cls-3 {
        fill: #59a2b8;
      }

      .cls-4 {
        fill: #f9f9fa;
      }

      .cls-5 {
        fill: #030303;
      }

      .cls-6 {
        fill: #1f7f9c;
      }

      .cls-7 {
        fill: #040404;
      }

      .cls-8 {
        fill: #020202;
      }

      .cls-9 {
        fill: #080808;
      }

      .cls-10 {
        fill: #0b0b0b;
      }

      .cls-11 {
        fill: #0c0c0c;
      }

      .cls-12 {
        fill: #060606;
      }

      .cls-13 {
        fill: #010101;
      }

      .cls-14 {
        fill: #23819e;
      }

      .cls-15 {
        fill: #20829d;
      }

      .cls-16 {
        fill: #20809c;
      }

      .cls-17 {
        fill: #262525;
      }
    </style>
  </defs>
  <g>
    <path class="cls-1" d="M405.44,391.94a2.37,2.37,0,0,1-2.59,1.83,2.41,2.41,0,0,1-2.11-2.38,2.37,2.37,0,0,1,2.13-2.3,2.33,2.33,0,0,1,2.57,1.84l.08.26v.42Zm-2.32-2.68a2.19,2.19,0,0,0-2.19,2.17,2.2,2.2,0,0,0,4.4,0A2.2,2.2,0,0,0,403.12,389.26Z" transform="translate(-205.52 -370.98)"/>
    <path class="cls-2" d="M279.77,422.08h-2.53a.25.25,0,0,1,0-.07h2.57S279.78,422.05,279.77,422.08Z" transform="translate(-205.52 -370.98)"/>
    <path class="cls-3" d="M277.22,422a.25.25,0,0,0,0,.07h-.76s0-.05,0-.07Z" transform="translate(-205.52 -370.98)"/>
    <path class="cls-4" d="M279.77,422.08s0-.05,0-.08h.32v.07Z" transform="translate(-205.52 -370.98)"/>
    <path class="cls-5" d="M280.11,422H276.5a25.59,25.59,0,0,1-23.22-31.76l1.75,1.47c-1.36,7.63.32,14.48,5.5,20.32a23.83,23.83,0,0,0,35.71-.22c4.94-5.66,6.57-12.29,5.39-19.66l1.81-1.54c.15.9.33,1.72.44,2.56a25,25,0,0,1-2.36,14.47,25.4,25.4,0,0,1-11.25,11.5A25.78,25.78,0,0,1,280.11,422Z" transform="translate(-205.52 -370.98)"/>
    <path class="cls-5" d="M205.52,382.46c1,.08,1.88.22,2.74.2,3.43-.1,6.87-.23,10.3-.39,3.09-.14,6.17-.32,9.25-.52,2.15-.14,4.3-.37,6.46-.51s4.2-.25,6.3-.33c1.87-.06,3.74-.16,5.6-.05a10.93,10.93,0,0,1,8.4,4.59c1.4,1.84,2.86,3.63,4.3,5.45l7.36,9.32a.45.45,0,0,1,.09.33,2.07,2.07,0,0,1-.24-.17c-3.19-2.86-6.38-5.73-9.59-8.57-2.53-2.24-5.09-4.45-7.64-6.68a2.19,2.19,0,0,0-1.45-.54l-11.79-.31c-2.75-.08-5.5-.13-8.25-.2l-10.78-.31c-2,0-4,0-6.05-.2-1.41-.11-2.8-.42-4.19-.67A3.34,3.34,0,0,1,205.52,382.46Z" transform="translate(-205.52 -370.98)"/>
    <path class="cls-5" d="M290.9,400.2l7.53-9.56c1.42-1.81,2.81-3.64,4.26-5.43a10.83,10.83,0,0,1,8.86-4.37c3.91.05,7.84.12,11.73.45,6.12.53,12.24.77,18.36,1.17a63.73,63.73,0,0,0,8.63.13,5.73,5.73,0,0,0,.58-.07,1.79,1.79,0,0,1,.64-.06l-.3.21a4.72,4.72,0,0,1-2.41.66c-1.85,0-3.69.31-5.54.38-3.38.13-6.76.2-10.14.28-2.75.08-5.5.13-8.25.2l-10.74.3c-1.46,0-2.92.08-4.38.1a2.1,2.1,0,0,0-1.46.52l-10.55,9.27c-2.25,2-4.48,4-6.72,6Z" transform="translate(-205.52 -370.98)"/>
    <path class="cls-6" d="M294.27,403.94l-5.38-1.09L278.77,392.2h-.58l-3,3.2-6.88,7.32a1.05,1.05,0,0,1-.52.3c-2,.4-4,.78-6,1.16v-.13c1.54-.64,3.07-1.28,4.61-1.9a1.39,1.39,0,0,0,.71-.6l11.06-17.39.28-.4c.13.17.24.31.33.45q5.54,8.7,11.08,17.39a1.55,1.55,0,0,0,.61.52c1.25.57,2.52,1.12,3.79,1.67Z" transform="translate(-205.52 -370.98)"/>
    <path class="cls-7" d="M301.44,385.24l-1.33,1.84c-4.73-9.13-12.11-14.25-22.63-13.95-9.61.27-16.4,5.23-20.82,13.57l-1.31-1.81a25.9,25.9,0,0,1,46.09.35Z" transform="translate(-205.52 -370.98)"/>
    <path class="cls-5" d="M369.82,398.25l-3,3.2h-2.13l1.15-1.25v-5.14h1.51v3.6l2.31-2.45,2.74,2.72v-3.88h1.48v5.15l1.29,1.24h-2Z" transform="translate(-205.52 -370.98)"/>
    <path class="cls-7" d="M394.78,401.28A1.28,1.28,0,0,1,396.2,400h4V399a4,4,0,0,0-.47-.06c-1.34,0-2.67,0-4,0-.59,0-.87-.22-.9-.81,0-.79,0-1.58,0-2.37a.56.56,0,0,1,.6-.58h6.11a1.31,1.31,0,0,1-1.36,1.31h-3.94a.82.82,0,0,0,0,1.11h4.69c.38,0,.59.16.59.54,0,.89,0,1.78,0,2.67a1.41,1.41,0,0,1-.14.44Z" transform="translate(-205.52 -370.98)"/>
    <path class="cls-5" d="M384.34,398.94v-3.76h1.6v6.24H384.3l-2.71-3.2v3.2H380v-4.83l-1.26-1.4h2.16Z" transform="translate(-205.52 -370.98)"/>
    <path class="cls-7" d="M309.64,398.61v3.12h-1.49v-4.8l-1.23-1.37H309l3.42,3.78v-3.79H314v6.17h-1.6l-2.66-3.14Z" transform="translate(-205.52 -370.98)"/>
    <path class="cls-8" d="M324,400.17h3.12v-4.62h1.36c0,.1,0,.22,0,.34,0,1.51,0,3,0,4.51,0,1.05-.35,1.39-1.41,1.39h-3.37c-.78,0-1.09-.3-1.09-1.05v-5.2H324Z" transform="translate(-205.52 -370.98)"/>
    <path class="cls-9" d="M393.44,396.63H390c-1,0-1.17.21-1.17,1.14V400h2.44v1.35c-.91,0-1.84.06-2.75,0a1.14,1.14,0,0,1-1.05-1.25c0-1.12,0-2.23,0-3.34a1.65,1.65,0,0,1,1.51-1.59c1.47,0,2.94,0,4.42,0Z" transform="translate(-205.52 -370.98)"/>
    <path class="cls-5" d="M354.72,401.77h-2.13l-.72-1.32h-4.25l.82-1.55h2.65l-1.2-2,1.11-1.55Z" transform="translate(-205.52 -370.98)"/>
    <path class="cls-5" d="M318.35,398.92l-1.22-2.05,1.11-1.54,3.72,6.44h-2.13l-.7-1.31h-4.27l.82-1.54Z" transform="translate(-205.52 -370.98)"/>
    <path class="cls-10" d="M333.79,396.62v5.07h-1.52v-4.92a8.7,8.7,0,0,1-2-.28c-.39-.14-.65-.65-1-1h7.31A2.4,2.4,0,0,1,333.79,396.62Z" transform="translate(-205.52 -370.98)"/>
    <path class="cls-9" d="M355.12,395.56h1.35v4.62h5c-.07,1-.54,1.46-1.53,1.46h-4.82Z" transform="translate(-205.52 -370.98)"/>
    <path class="cls-11" d="M340.2,397.9h1.4v2.22h5.17a1.21,1.21,0,0,1-1,1.57c-1.44,0-2.89,0-4.34,0a1.1,1.1,0,0,1-1.2-1.24Z" transform="translate(-205.52 -370.98)"/>
    <path class="cls-7" d="M278.67,413.67c-.18-5.36-.34-8.82-.47-10a5.66,5.66,0,0,1,0-1.12c.08-1,.39-2.14.67-2.13s.52,1.78.54,2a9.74,9.74,0,0,1,.05,1.24C279.39,404.85,279.11,408.6,278.67,413.67Z" transform="translate(-205.52 -370.98)"/>
    <path class="cls-12" d="M377.76,401.51H376V395h1.72Z" transform="translate(-205.52 -370.98)"/>
    <path class="cls-13" d="M340.22,397.13v-1.5h6.63a1.42,1.42,0,0,1-.35,1.16,1,1,0,0,1-.61.31c-1.84,0-3.68,0-5.52.06Z" transform="translate(-205.52 -370.98)"/>
    <path class="cls-7" d="M338.86,395.53v6.23h-1.47v-6.23Z" transform="translate(-205.52 -370.98)"/>
    <path class="cls-13" d="M392,399.12h-1.77v-1.25c.87,0,1.74,0,2.61,0,.15,0,.39.35.4.54,0,1,0,2,0,3H392Z" transform="translate(-205.52 -370.98)"/>
    <path class="cls-12" d="M275,402.09c.16.13.2.47.29.81a5.19,5.19,0,0,1,.13.82,56.37,56.37,0,0,1-.51,6.2,43.37,43.37,0,0,1-.42-6.26,4.71,4.71,0,0,1,.17-.78C274.79,402.53,274.84,402.24,275,402.09Z" transform="translate(-205.52 -370.98)"/>
    <path class="cls-14" d="M384.84,404.81v1.13l-.5,0v-2.83c.49,0,1,0,1.46,0a.73.73,0,0,1,.47.18.82.82,0,0,1,.24.43.8.8,0,0,1,0,.5.86.86,0,0,1-.45.47l.47,1.21H386l-.43-1.13Zm0-.44a1,1,0,0,0,.75,0c.07,0,.37-.18.36-.4s-.29-.35-.37-.39a1,1,0,0,0-.74,0Z" transform="translate(-205.52 -370.98)"/>
    <path class="cls-15" d="M389.25,404.62a1.5,1.5,0,0,1-.21.78,1,1,0,0,1-.31.37,1.19,1.19,0,0,1-.68.2,1,1,0,0,1-1-.6,1.75,1.75,0,0,1-.06-1.53,1.14,1.14,0,0,1,1.12-.72,1.22,1.22,0,0,1,.54.16,1.2,1.2,0,0,1,.48.63A1.68,1.68,0,0,1,389.25,404.62Zm-.53-.08c0-.63-.24-1-.65-1s-.65.35-.66,1,.23,1,.63,1S388.72,405.18,388.72,404.54Z" transform="translate(-205.52 -370.98)"/>
    <path class="cls-14" d="M391.55,403.7l-.39.09a.65.65,0,0,0-.68-.24.6.6,0,0,0-.27.19.41.41,0,0,0,0,.3.4.4,0,0,0,.21.1,2.55,2.55,0,0,1,.67.29,1,1,0,0,1,.41.66.81.81,0,0,1-.06.39,1,1,0,0,1-.21.33,1.09,1.09,0,0,1-1,.17,1,1,0,0,1-.62-.33,1.11,1.11,0,0,1-.23-.42l.43-.11a.66.66,0,0,0,.34.36.7.7,0,0,0,.53,0c.05,0,.27-.12.3-.3s-.2-.38-.22-.4c-.2-.14-.33,0-.69-.18a.77.77,0,0,1-.42-.27.65.65,0,0,1-.13-.42.76.76,0,0,1,.09-.38.78.78,0,0,1,.43-.34A1.1,1.1,0,0,1,391.55,403.7Z" transform="translate(-205.52 -370.98)"/>
    <path class="cls-14" d="M392.71,405l0,.9h-.5v-2.81c.46,0,.91,0,1.35,0a.84.84,0,0,1,.76.9.89.89,0,0,1-.26.59,1.39,1.39,0,0,1-.57.25C393.27,404.93,393,405,392.71,405Zm0-.57a.77.77,0,0,0,.9-.25.51.51,0,0,0,0-.48.74.74,0,0,0-.94-.19Z" transform="translate(-205.52 -370.98)"/>
    <path class="cls-16" d="M383.84,403.14v.4h-1.27v.74h1v.43h-1v.83h1.28V406h-1.8v-2.81Z" transform="translate(-205.52 -370.98)"/>
    <path class="cls-16" d="M399.86,405.54h1.28l0,.4h-1.81v-2.79h1.76v.39h-1.25v.74h1l0,.43h-1Z" transform="translate(-205.52 -370.98)"/>
    <path class="cls-14" d="M380.78,403.14l.92,2.8-.5,0-.25-.66h-1.08l-.22.64h-.42c.31-.95.61-1.88.92-2.81Zm-.33.6h-.09l-.35,1.12h.8Z" transform="translate(-205.52 -370.98)"/>
    <path class="cls-14" d="M395.08,403.14h.62c.17.5.34,1,.5,1.5l.43,1.3-.5,0-.25-.66H394.8l-.22.64h-.42C394.47,405,394.77,404.07,395.08,403.14Zm-.15,1.71h.81l-.4-1.23Z" transform="translate(-205.52 -370.98)"/>
    <path class="cls-14" d="M398.5,405l.4.07a1.12,1.12,0,0,1-.43.78,1,1,0,0,1-.45.16,1,1,0,0,1-.8-.19,1.16,1.16,0,0,1-.32-.48,2.11,2.11,0,0,1-.11-1.18,1.07,1.07,0,0,1,1.08-1c.55,0,.88.28,1.05,1l-.43,0a.94.94,0,0,0-.15-.31.63.63,0,0,0-.47-.27.65.65,0,0,0-.44.3,1.2,1.2,0,0,0,0,1.3.69.69,0,0,0,.46.35.66.66,0,0,0,.48-.24A.75.75,0,0,0,398.5,405Z" transform="translate(-205.52 -370.98)"/>
    <path class="cls-6" d="M294.27,403.94v-.15l.69.28v0Z" transform="translate(-205.52 -370.98)"/>
    <path class="cls-6" d="M261.81,404.05v.13l-.47.12,0-.08Z" transform="translate(-205.52 -370.98)"/>
    <path class="cls-17" d="M290.9,400.2l.1.18-.21.19-.1-.08Z" transform="translate(-205.52 -370.98)"/>
    <path class="cls-17" d="M402.75,391.19l-.57-.2c-.15.67-.09,1.05.19,1.27l-.22,0h-.34l.12-1.3-.62.16V391c.43-.21.93,0,1.4-.11Z" transform="translate(-205.52 -370.98)"/>
    <path class="cls-1" d="M404.14,391.41l.21-.46h.41a1.26,1.26,0,0,0,0,1.31h-.47l.1-.9-.56,1Z" transform="translate(-205.52 -370.98)"/>
    <path class="cls-1" d="M403.1,391.18l-.19-.23h.4l.6,1,0,0-.12.37-.66-1.15A.07.07,0,0,0,403.1,391.18Z" transform="translate(-205.52 -370.98)"/>
    <path class="cls-1" d="M403.14,391.94l.21.32h-.43l.18-.31h0Z" transform="translate(-205.52 -370.98)"/>
    <path class="cls-1" d="M403.08,392v-.86l.07,0V392" transform="translate(-205.52 -370.98)"/>
    <path class="cls-12" d="M282.46,402c.17.14.21.48.3.82a4.59,4.59,0,0,1,.12.82,56.27,56.27,0,0,1-.51,6.19,44.11,44.11,0,0,1-.41-6.25,5,5,0,0,1,.16-.78A1.94,1.94,0,0,1,282.46,402Z" transform="translate(-205.52 -370.98)"/>
    <path class="cls-1" d="M403.88,391.88l.26-.47.11,0-.43.95" transform="translate(-205.52 -370.98)"/>
  </g>
</svg>
